<svg xmlns="http://www.w3.org/2000/svg" xmlns:xlink="http://www.w3.org/1999/xlink" width="263" zoomAndPan="magnify" viewBox="0 0 197.25 116.999995" height="156" preserveAspectRatio="xMidYMid meet" version="1.0"><defs><clipPath id="9752c2f9ca"><path d="M 15 20 L 49 20 L 49 116.777344 L 15 116.777344 Z M 15 20 " clip-rule="nonzero"/></clipPath><clipPath id="43e2ba8d8a"><path d="M 0 0.222656 L 44 0.222656 L 44 102 L 0 102 Z M 0 0.222656 " clip-rule="nonzero"/></clipPath><clipPath id="c4ca80ab81"><path d="M 129 77 L 195 77 L 195 116.777344 L 129 116.777344 Z M 129 77 " clip-rule="nonzero"/></clipPath><clipPath id="607661e8d1"><path d="M 20 0.222656 L 55 0.222656 L 55 45 L 20 45 Z M 20 0.222656 " clip-rule="nonzero"/></clipPath><clipPath id="6ea0b63081"><path d="M 26 0.222656 L 112 0.222656 L 112 65 L 26 65 Z M 26 0.222656 " clip-rule="nonzero"/></clipPath><clipPath id="92fb82aec8"><path d="M 78 68 L 164 68 L 164 116.777344 L 78 116.777344 Z M 78 68 " clip-rule="nonzero"/></clipPath><clipPath id="afe6ac43f5"><path d="M 26 114 L 81 114 L 81 116.777344 L 26 116.777344 Z M 26 114 " clip-rule="nonzero"/></clipPath><clipPath id="d7081c5660"><path d="M 10 103 L 14 103 L 14 116.777344 L 10 116.777344 Z M 10 103 " clip-rule="nonzero"/></clipPath><clipPath id="13248abaff"><path d="M 5 103 L 8 103 L 8 116.777344 L 5 116.777344 Z M 5 103 " clip-rule="nonzero"/></clipPath><clipPath id="7e9b22e66e"><path d="M 119 114 L 154 114 L 154 116.777344 L 119 116.777344 Z M 119 114 " clip-rule="nonzero"/></clipPath><clipPath id="36b2107eda"><path d="M 5 0.222656 L 19 0.222656 L 19 8 L 5 8 Z M 5 0.222656 " clip-rule="nonzero"/></clipPath></defs><g clip-path="url(#9752c2f9ca)"><path fill="#6ae7df" d="M 17.007812 116.824219 C 17.570312 116.824219 18.039062 116.460938 18.21875 115.957031 L 22.378906 115.957031 L 48.589844 89.792969 L 48.589844 53.160156 L 18.171875 22.796875 C 18.253906 22.628906 18.304688 22.445312 18.304688 22.246094 C 18.304688 21.53125 17.722656 20.949219 17.007812 20.949219 C 16.289062 20.949219 15.710938 21.53125 15.710938 22.246094 C 15.710938 22.960938 16.289062 23.542969 17.007812 23.542969 C 17.207031 23.542969 17.390625 23.488281 17.558594 23.410156 L 47.722656 53.519531 L 47.722656 89.4375 L 22.019531 115.09375 L 18.21875 115.09375 C 18.039062 114.59375 17.570312 114.230469 17.007812 114.230469 C 16.289062 114.230469 15.710938 114.8125 15.710938 115.527344 C 15.710938 116.242188 16.289062 116.824219 17.007812 116.824219 Z M 17.007812 116.824219 " fill-opacity="1" fill-rule="nonzero"/></g><g clip-path="url(#43e2ba8d8a)"><path fill="#6ae7df" d="M 1 2.726562 L 1 12.058594 L 42.53125 53.519531 L 42.53125 84.253906 L 27.941406 98.816406 C 27.773438 98.738281 27.589844 98.683594 27.390625 98.683594 C 26.671875 98.683594 26.09375 99.265625 26.09375 99.980469 C 26.09375 100.695312 26.671875 101.277344 27.390625 101.277344 C 28.109375 101.277344 28.6875 100.695312 28.6875 99.980469 C 28.6875 99.78125 28.636719 99.597656 28.554688 99.429688 L 43.398438 84.613281 L 43.398438 53.160156 L 1.863281 11.703125 L 1.863281 2.726562 C 2.367188 2.546875 2.730469 2.078125 2.730469 1.515625 C 2.730469 0.800781 2.148438 0.222656 1.433594 0.222656 C 0.714844 0.222656 0.136719 0.800781 0.136719 1.515625 C 0.136719 2.078125 0.5 2.546875 1 2.726562 Z M 1 2.726562 " fill-opacity="1" fill-rule="nonzero"/></g><g clip-path="url(#c4ca80ab81)"><path fill="#6ae7df" d="M 132.386719 79.800781 C 132.46875 79.632812 132.519531 79.449219 132.519531 79.25 C 132.519531 78.535156 131.9375 77.957031 131.222656 77.957031 C 130.503906 77.957031 129.925781 78.535156 129.925781 79.25 C 129.925781 79.964844 130.503906 80.546875 131.222656 80.546875 C 131.421875 80.546875 131.605469 80.492188 131.773438 80.414062 L 167.257812 115.832031 L 167.382812 115.957031 L 192.3125 115.957031 C 192.492188 116.460938 192.957031 116.824219 193.523438 116.824219 C 194.238281 116.824219 194.820312 116.242188 194.820312 115.527344 C 194.820312 114.8125 194.238281 114.230469 193.523438 114.230469 C 192.957031 114.230469 192.492188 114.59375 192.3125 115.09375 L 167.742188 115.09375 Z M 132.386719 79.800781 " fill-opacity="1" fill-rule="nonzero"/></g><path fill="#6ae7df" d="M 32.582031 109.050781 C 31.867188 109.050781 31.285156 109.628906 31.285156 110.34375 C 31.285156 111.058594 31.867188 111.640625 32.582031 111.640625 C 33.144531 111.640625 33.613281 111.277344 33.792969 110.777344 L 79.128906 110.777344 L 84.320312 115.957031 L 105.441406 115.957031 L 115.828125 105.59375 L 130.011719 105.59375 C 130.191406 106.09375 130.660156 106.457031 131.222656 106.457031 C 131.9375 106.457031 132.519531 105.878906 132.519531 105.164062 C 132.519531 104.445312 131.9375 103.867188 131.222656 103.867188 C 130.660156 103.867188 130.191406 104.230469 130.011719 104.730469 L 115.46875 104.730469 L 105.085938 115.09375 L 84.675781 115.09375 L 79.484375 109.914062 L 33.792969 109.914062 C 33.613281 109.410156 33.144531 109.050781 32.582031 109.050781 Z M 32.582031 109.050781 " fill-opacity="1" fill-rule="nonzero"/><path fill="#6ae7df" d="M 1.433594 96.09375 C 1.996094 96.09375 2.464844 95.730469 2.644531 95.230469 L 22.378906 95.230469 L 38.207031 79.429688 L 38.207031 68.707031 L 33.746094 64.253906 C 33.828125 64.085938 33.878906 63.902344 33.878906 63.703125 C 33.878906 62.988281 33.300781 62.410156 32.582031 62.410156 C 31.867188 62.410156 31.285156 62.988281 31.285156 63.703125 C 31.285156 64.421875 31.867188 65 32.582031 65 C 32.78125 65 32.964844 64.945312 33.136719 64.867188 L 37.339844 69.066406 L 37.339844 79.074219 L 22.019531 94.367188 L 2.644531 94.367188 C 2.464844 93.867188 1.996094 93.503906 1.433594 93.503906 C 0.714844 93.503906 0.136719 94.082031 0.136719 94.796875 C 0.136719 95.511719 0.714844 96.09375 1.433594 96.09375 Z M 1.433594 96.09375 " fill-opacity="1" fill-rule="nonzero"/><g clip-path="url(#607661e8d1)"><path fill="#6ae7df" d="M 21.765625 2.726562 L 21.765625 12.0625 L 52.183594 42.425781 C 52.105469 42.59375 52.050781 42.777344 52.050781 42.976562 C 52.050781 43.691406 52.632812 44.269531 53.347656 44.269531 C 54.066406 44.269531 54.644531 43.691406 54.644531 42.976562 C 54.644531 42.261719 54.066406 41.679688 53.347656 41.679688 C 53.148438 41.679688 52.964844 41.734375 52.796875 41.8125 L 22.632812 11.703125 L 22.632812 2.726562 C 23.132812 2.546875 23.496094 2.078125 23.496094 1.515625 C 23.496094 0.800781 22.914062 0.222656 22.199219 0.222656 C 21.480469 0.222656 20.902344 0.800781 20.902344 1.515625 C 20.902344 2.078125 21.265625 2.546875 21.765625 2.726562 Z M 21.765625 2.726562 " fill-opacity="1" fill-rule="nonzero"/></g><path fill="#6ae7df" d="M 42.785156 99.546875 L 38.324219 104 C 38.15625 103.921875 37.972656 103.867188 37.773438 103.867188 C 37.058594 103.867188 36.476562 104.445312 36.476562 105.164062 C 36.476562 105.878906 37.058594 106.457031 37.773438 106.457031 C 38.492188 106.457031 39.070312 105.878906 39.070312 105.164062 C 39.070312 104.964844 39.019531 104.78125 38.9375 104.613281 L 43.144531 100.414062 L 47.976562 100.414062 L 52.183594 104.613281 C 52.105469 104.78125 52.050781 104.964844 52.050781 105.164062 C 52.050781 105.878906 52.632812 106.457031 53.347656 106.457031 C 54.066406 106.457031 54.644531 105.878906 54.644531 105.164062 C 54.644531 104.445312 54.066406 103.867188 53.347656 103.867188 C 53.148438 103.867188 52.964844 103.921875 52.796875 104 L 48.335938 99.546875 Z M 42.785156 99.546875 " fill-opacity="1" fill-rule="nonzero"/><path fill="#6ae7df" d="M 36.476562 63.703125 C 36.476562 64.421875 37.058594 65 37.773438 65 C 38.492188 65 39.070312 64.421875 39.070312 63.703125 C 39.070312 63.140625 38.707031 62.675781 38.207031 62.496094 L 38.207031 53.160156 L 32.761719 47.726562 L 27.210938 47.726562 L 22.75 52.175781 C 22.582031 52.097656 22.398438 52.042969 22.199219 52.042969 C 21.480469 52.042969 20.902344 52.625 20.902344 53.339844 C 20.902344 54.054688 21.480469 54.636719 22.199219 54.636719 C 22.914062 54.636719 23.496094 54.054688 23.496094 53.339844 C 23.496094 53.140625 23.445312 52.957031 23.363281 52.789062 L 27.570312 48.589844 L 32.402344 48.589844 L 37.339844 53.519531 L 37.339844 62.496094 C 36.839844 62.675781 36.476562 63.140625 36.476562 63.703125 Z M 36.476562 63.703125 " fill-opacity="1" fill-rule="nonzero"/><g clip-path="url(#6ea0b63081)"><path fill="#6ae7df" d="M 53.167969 38.226562 L 84.320312 38.226562 L 109.292969 63.152344 C 109.210938 63.320312 109.15625 63.503906 109.15625 63.703125 C 109.15625 64.421875 109.738281 65 110.457031 65 C 111.171875 65 111.753906 64.421875 111.753906 63.703125 C 111.753906 62.988281 111.171875 62.410156 110.457031 62.410156 C 110.257812 62.410156 110.074219 62.460938 109.902344 62.542969 L 84.804688 37.488281 L 84.675781 37.359375 L 53.527344 37.359375 L 27.824219 11.703125 L 27.824219 6.878906 L 32.761719 1.949219 L 36.5625 1.949219 C 36.742188 2.449219 37.210938 2.8125 37.773438 2.8125 C 38.492188 2.8125 39.070312 2.234375 39.070312 1.515625 C 39.070312 0.800781 38.492188 0.222656 37.773438 0.222656 C 37.210938 0.222656 36.742188 0.585938 36.5625 1.085938 L 32.402344 1.085938 L 26.957031 6.519531 L 26.957031 12.0625 L 53.042969 38.097656 Z M 53.167969 38.226562 " fill-opacity="1" fill-rule="nonzero"/></g><path fill="#6ae7df" d="M 1.433594 65 C 1.996094 65 2.464844 64.636719 2.644531 64.136719 L 15.796875 64.136719 C 15.976562 64.636719 16.445312 65 17.007812 65 C 17.722656 65 18.304688 64.421875 18.304688 63.703125 C 18.304688 62.988281 17.722656 62.410156 17.007812 62.410156 C 16.445312 62.410156 15.976562 62.773438 15.796875 63.273438 L 2.644531 63.273438 C 2.464844 62.773438 1.996094 62.410156 1.433594 62.410156 C 0.714844 62.410156 0.136719 62.988281 0.136719 63.703125 C 0.136719 64.421875 0.714844 65 1.433594 65 Z M 1.433594 65 " fill-opacity="1" fill-rule="nonzero"/><g clip-path="url(#92fb82aec8)"><path fill="#6ae7df" d="M 157 115.957031 L 161.160156 115.957031 C 161.339844 116.460938 161.808594 116.824219 162.371094 116.824219 C 163.089844 116.824219 163.667969 116.242188 163.667969 115.527344 C 163.667969 114.8125 163.089844 114.230469 162.371094 114.230469 C 161.808594 114.230469 161.339844 114.59375 161.160156 115.09375 L 157.359375 115.09375 L 110.761719 68.582031 L 110.632812 68.453125 L 105.085938 68.453125 L 79.859375 93.636719 C 79.691406 93.554688 79.507812 93.503906 79.304688 93.503906 C 78.589844 93.503906 78.007812 94.082031 78.007812 94.796875 C 78.007812 95.511719 78.589844 96.09375 79.304688 96.09375 C 80.023438 96.09375 80.605469 95.511719 80.605469 94.796875 C 80.605469 94.597656 80.550781 94.414062 80.46875 94.246094 L 105.441406 69.316406 L 110.277344 69.316406 L 156.875 115.832031 Z M 157 115.957031 " fill-opacity="1" fill-rule="nonzero"/></g><path fill="#6ae7df" d="M 6.625 7.996094 C 6.824219 7.996094 7.007812 7.941406 7.175781 7.863281 L 47.851562 48.460938 L 47.976562 48.589844 L 53.527344 48.589844 L 58.71875 43.40625 L 84.320312 43.40625 L 104.101562 63.152344 C 104.019531 63.320312 103.964844 63.503906 103.964844 63.703125 C 103.964844 64.421875 104.546875 65 105.265625 65 C 105.980469 65 106.5625 64.421875 106.5625 63.703125 C 106.5625 62.988281 105.980469 62.410156 105.265625 62.410156 C 105.066406 62.410156 104.882812 62.460938 104.710938 62.542969 L 84.804688 42.671875 L 84.675781 42.542969 L 58.359375 42.542969 L 53.167969 47.726562 L 48.335938 47.726562 L 7.789062 7.25 C 7.871094 7.082031 7.921875 6.898438 7.921875 6.699219 C 7.921875 5.984375 7.339844 5.402344 6.625 5.402344 C 5.90625 5.402344 5.328125 5.984375 5.328125 6.699219 C 5.328125 7.414062 5.90625 7.996094 6.625 7.996094 Z M 6.625 7.996094 " fill-opacity="1" fill-rule="nonzero"/><path fill="#6ae7df" d="M 1.433594 59.816406 C 2.148438 59.816406 2.730469 59.238281 2.730469 58.523438 C 2.730469 57.960938 2.367188 57.492188 1.863281 57.3125 L 1.863281 53.519531 L 16.457031 38.957031 C 16.625 39.035156 16.808594 39.089844 17.007812 39.089844 C 17.722656 39.089844 18.304688 38.507812 18.304688 37.792969 C 18.304688 37.078125 17.722656 36.496094 17.007812 36.496094 C 16.289062 36.496094 15.710938 37.078125 15.710938 37.792969 C 15.710938 37.992188 15.761719 38.175781 15.84375 38.34375 L 1 53.160156 L 1 57.3125 C 0.5 57.492188 0.136719 57.960938 0.136719 58.523438 C 0.136719 59.238281 0.714844 59.816406 1.433594 59.816406 Z M 1.433594 59.816406 " fill-opacity="1" fill-rule="nonzero"/><path fill="#6ae7df" d="M 58.359375 47.726562 L 52.914062 53.160156 L 52.914062 79.429688 L 67.757812 94.246094 C 67.679688 94.414062 67.625 94.597656 67.625 94.796875 C 67.625 95.511719 68.207031 96.09375 68.921875 96.09375 C 69.640625 96.09375 70.222656 95.511719 70.222656 94.796875 C 70.222656 94.082031 69.640625 93.503906 68.921875 93.503906 C 68.722656 93.503906 68.539062 93.554688 68.371094 93.636719 L 53.78125 79.074219 L 53.78125 53.519531 L 58.71875 48.589844 L 84.320312 48.589844 L 99.640625 63.882812 L 99.640625 68.707031 L 95.433594 72.90625 C 95.265625 72.828125 95.082031 72.773438 94.882812 72.773438 C 94.164062 72.773438 93.582031 73.351562 93.582031 74.070312 C 93.582031 74.785156 94.164062 75.363281 94.882812 75.363281 C 95.597656 75.363281 96.179688 74.785156 96.179688 74.070312 C 96.179688 73.871094 96.125 73.6875 96.046875 73.519531 L 100.503906 69.066406 L 100.503906 63.523438 L 84.675781 47.726562 Z M 58.359375 47.726562 " fill-opacity="1" fill-rule="nonzero"/><path fill="#6ae7df" d="M 89.382812 110.648438 L 89.511719 110.777344 L 105.441406 110.777344 L 115.953125 100.285156 L 116.082031 100.160156 L 116.082031 79.070312 L 110.632812 73.636719 L 105.085938 73.636719 L 100.625 78.089844 C 100.457031 78.007812 100.273438 77.957031 100.074219 77.957031 C 99.355469 77.957031 98.773438 78.535156 98.773438 79.25 C 98.773438 79.964844 99.355469 80.546875 100.074219 80.546875 C 100.789062 80.546875 101.371094 79.964844 101.371094 79.25 C 101.371094 79.050781 101.316406 78.867188 101.238281 78.699219 L 105.441406 74.5 L 110.277344 74.5 L 115.214844 79.429688 L 115.214844 99.800781 L 105.085938 109.914062 L 89.867188 109.914062 L 69.355469 89.4375 L 69.355469 75.277344 C 69.859375 75.097656 70.222656 74.632812 70.222656 74.070312 C 70.222656 73.351562 69.640625 72.773438 68.921875 72.773438 C 68.207031 72.773438 67.625 73.351562 67.625 74.070312 C 67.625 74.632812 67.988281 75.097656 68.492188 75.277344 L 68.492188 89.792969 Z M 89.382812 110.648438 " fill-opacity="1" fill-rule="nonzero"/><path fill="#6ae7df" d="M 88.390625 105.164062 C 88.390625 105.878906 88.972656 106.457031 89.691406 106.457031 C 90.40625 106.457031 90.988281 105.878906 90.988281 105.164062 C 90.988281 104.601562 90.625 104.132812 90.121094 103.953125 L 90.121094 90.824219 C 90.625 90.644531 90.988281 90.179688 90.988281 89.617188 C 90.988281 88.898438 90.40625 88.320312 89.691406 88.320312 C 88.972656 88.320312 88.390625 88.898438 88.390625 89.617188 C 88.390625 90.179688 88.753906 90.644531 89.257812 90.824219 L 89.257812 103.953125 C 88.753906 104.132812 88.390625 104.601562 88.390625 105.164062 Z M 88.390625 105.164062 " fill-opacity="1" fill-rule="nonzero"/><path fill="#6ae7df" d="M 1.433594 90.910156 C 2.148438 90.910156 2.730469 90.332031 2.730469 89.617188 C 2.730469 89.417969 2.675781 89.234375 2.597656 89.0625 L 33.015625 58.703125 L 33.015625 54.546875 C 33.515625 54.367188 33.878906 53.902344 33.878906 53.339844 C 33.878906 52.625 33.300781 52.042969 32.582031 52.042969 C 31.867188 52.042969 31.285156 52.625 31.285156 53.339844 C 31.285156 53.902344 31.648438 54.371094 32.148438 54.546875 L 32.148438 58.34375 L 1.984375 88.453125 C 1.816406 88.375 1.632812 88.320312 1.433594 88.320312 C 0.714844 88.320312 0.136719 88.898438 0.136719 89.617188 C 0.136719 90.332031 0.714844 90.910156 1.433594 90.910156 Z M 1.433594 90.910156 " fill-opacity="1" fill-rule="nonzero"/><path fill="#6ae7df" d="M 1.433594 101.277344 C 1.996094 101.277344 2.464844 100.914062 2.644531 100.414062 L 10.605469 100.414062 C 10.785156 100.914062 11.253906 101.277344 11.816406 101.277344 C 12.53125 101.277344 13.113281 100.695312 13.113281 99.980469 C 13.113281 99.265625 12.53125 98.683594 11.816406 98.683594 C 11.253906 98.683594 10.785156 99.046875 10.605469 99.546875 L 2.644531 99.546875 C 2.464844 99.046875 1.996094 98.683594 1.433594 98.683594 C 0.714844 98.683594 0.136719 99.265625 0.136719 99.980469 C 0.136719 100.695312 0.714844 101.277344 1.433594 101.277344 Z M 1.433594 101.277344 " fill-opacity="1" fill-rule="nonzero"/><g clip-path="url(#afe6ac43f5)"><path fill="#6ae7df" d="M 27.390625 114.230469 C 26.671875 114.230469 26.09375 114.8125 26.09375 115.527344 C 26.09375 116.242188 26.671875 116.824219 27.390625 116.824219 C 27.953125 116.824219 28.421875 116.460938 28.601562 115.957031 L 78.097656 115.957031 C 78.273438 116.460938 78.742188 116.824219 79.304688 116.824219 C 80.023438 116.824219 80.605469 116.242188 80.605469 115.527344 C 80.605469 114.8125 80.023438 114.230469 79.304688 114.230469 C 78.742188 114.230469 78.277344 114.59375 78.097656 115.09375 L 28.601562 115.09375 C 28.421875 114.59375 27.953125 114.230469 27.390625 114.230469 Z M 27.390625 114.230469 " fill-opacity="1" fill-rule="nonzero"/></g><path fill="#6ae7df" d="M 32.582031 72.773438 C 32.019531 72.773438 31.550781 73.136719 31.371094 73.636719 L 23.410156 73.636719 C 23.230469 73.136719 22.761719 72.773438 22.199219 72.773438 C 21.480469 72.773438 20.902344 73.351562 20.902344 74.070312 C 20.902344 74.785156 21.480469 75.363281 22.199219 75.363281 C 22.761719 75.363281 23.230469 75 23.410156 74.5 L 31.371094 74.5 C 31.550781 75 32.019531 75.363281 32.582031 75.363281 C 33.300781 75.363281 33.878906 74.785156 33.878906 74.070312 C 33.878906 73.351562 33.300781 72.773438 32.582031 72.773438 Z M 32.582031 72.773438 " fill-opacity="1" fill-rule="nonzero"/><path fill="#6ae7df" d="M 99.640625 103.953125 C 99.136719 104.132812 98.773438 104.601562 98.773438 105.164062 C 98.773438 105.878906 99.355469 106.457031 100.074219 106.457031 C 100.789062 106.457031 101.371094 105.878906 101.371094 105.164062 C 101.371094 104.601562 101.007812 104.132812 100.503906 103.953125 L 100.503906 89.792969 L 109.902344 80.414062 C 110.074219 80.492188 110.257812 80.546875 110.457031 80.546875 C 111.171875 80.546875 111.753906 79.964844 111.753906 79.25 C 111.753906 78.535156 111.171875 77.957031 110.457031 77.957031 C 109.738281 77.957031 109.15625 78.535156 109.15625 79.25 C 109.15625 79.449219 109.210938 79.632812 109.292969 79.800781 L 99.640625 89.4375 Z M 99.640625 103.953125 " fill-opacity="1" fill-rule="nonzero"/><path fill="#6ae7df" d="M 115.214844 64.914062 L 115.214844 69.066406 L 124.867188 78.699219 C 124.785156 78.867188 124.734375 79.050781 124.734375 79.25 C 124.734375 79.964844 125.3125 80.546875 126.03125 80.546875 C 126.746094 80.546875 127.328125 79.964844 127.328125 79.25 C 127.328125 78.535156 126.746094 77.957031 126.03125 77.957031 C 125.832031 77.957031 125.648438 78.007812 125.480469 78.089844 L 116.082031 68.707031 L 116.082031 64.914062 C 116.582031 64.734375 116.945312 64.265625 116.945312 63.703125 C 116.945312 62.988281 116.363281 62.410156 115.648438 62.410156 C 114.929688 62.410156 114.351562 62.988281 114.351562 63.703125 C 114.351562 64.265625 114.714844 64.734375 115.214844 64.914062 Z M 115.214844 64.914062 " fill-opacity="1" fill-rule="nonzero"/><path fill="#6ae7df" d="M 20.902344 63.703125 C 20.902344 64.421875 21.480469 65 22.199219 65 C 22.914062 65 23.496094 64.421875 23.496094 63.703125 C 23.496094 63.140625 23.132812 62.675781 22.632812 62.496094 L 22.632812 58.34375 L 12.980469 48.707031 C 13.058594 48.539062 13.113281 48.355469 13.113281 48.15625 C 13.113281 47.441406 12.53125 46.863281 11.816406 46.863281 C 11.097656 46.863281 10.519531 47.441406 10.519531 48.15625 C 10.519531 48.875 11.097656 49.453125 11.816406 49.453125 C 12.015625 49.453125 12.199219 49.398438 12.367188 49.320312 L 21.765625 58.699219 L 21.765625 62.496094 C 21.265625 62.675781 20.902344 63.140625 20.902344 63.703125 Z M 20.902344 63.703125 " fill-opacity="1" fill-rule="nonzero"/><g clip-path="url(#d7081c5660)"><path fill="#6ae7df" d="M 10.519531 115.527344 C 10.519531 116.242188 11.097656 116.824219 11.816406 116.824219 C 12.53125 116.824219 13.113281 116.242188 13.113281 115.527344 C 13.113281 114.964844 12.75 114.496094 12.25 114.320312 L 12.25 106.371094 C 12.75 106.191406 13.113281 105.726562 13.113281 105.164062 C 13.113281 104.445312 12.53125 103.867188 11.816406 103.867188 C 11.097656 103.867188 10.519531 104.445312 10.519531 105.164062 C 10.519531 105.726562 10.882812 106.191406 11.382812 106.371094 L 11.382812 114.320312 C 10.882812 114.496094 10.519531 114.964844 10.519531 115.527344 Z M 10.519531 115.527344 " fill-opacity="1" fill-rule="nonzero"/></g><path fill="#6ae7df" d="M 52.914062 96.007812 L 52.914062 100.160156 L 57.375 104.613281 C 57.296875 104.78125 57.242188 104.964844 57.242188 105.164062 C 57.242188 105.878906 57.824219 106.457031 58.539062 106.457031 C 59.257812 106.457031 59.839844 105.878906 59.839844 105.164062 C 59.839844 104.445312 59.257812 103.867188 58.539062 103.867188 C 58.339844 103.867188 58.15625 103.921875 57.988281 104 L 53.78125 99.800781 L 53.78125 96.007812 C 54.28125 95.828125 54.644531 95.359375 54.644531 94.796875 C 54.644531 94.082031 54.066406 93.503906 53.347656 93.503906 C 52.632812 93.503906 52.050781 94.082031 52.050781 94.796875 C 52.050781 95.359375 52.414062 95.828125 52.914062 96.007812 Z M 52.914062 96.007812 " fill-opacity="1" fill-rule="nonzero"/><path fill="#6ae7df" d="M 89.691406 57.226562 C 88.972656 57.226562 88.390625 57.804688 88.390625 58.523438 C 88.390625 59.238281 88.972656 59.816406 89.691406 59.816406 C 89.890625 59.816406 90.074219 59.765625 90.242188 59.683594 L 94.449219 63.882812 L 94.449219 68.707031 L 84.066406 79.070312 L 84.066406 83.226562 C 83.5625 83.40625 83.199219 83.871094 83.199219 84.433594 C 83.199219 85.148438 83.78125 85.730469 84.5 85.730469 C 85.214844 85.730469 85.796875 85.148438 85.796875 84.433594 C 85.796875 83.871094 85.433594 83.402344 84.929688 83.226562 L 84.929688 79.429688 L 95.3125 69.066406 L 95.3125 63.527344 L 90.855469 59.074219 C 90.933594 58.90625 90.988281 58.722656 90.988281 58.523438 C 90.988281 57.804688 90.40625 57.226562 89.691406 57.226562 Z M 89.691406 57.226562 " fill-opacity="1" fill-rule="nonzero"/><path fill="#6ae7df" d="M 1.433594 80.546875 C 2.148438 80.546875 2.730469 79.964844 2.730469 79.25 C 2.730469 79.050781 2.675781 78.867188 2.597656 78.699219 L 11.996094 69.316406 L 15.796875 69.316406 C 15.976562 69.820312 16.445312 70.183594 17.007812 70.183594 C 17.722656 70.183594 18.304688 69.601562 18.304688 68.886719 C 18.304688 68.171875 17.722656 67.589844 17.007812 67.589844 C 16.445312 67.589844 15.976562 67.953125 15.796875 68.453125 L 11.636719 68.453125 L 1.984375 78.089844 C 1.816406 78.007812 1.632812 77.957031 1.433594 77.957031 C 0.714844 77.957031 0.136719 78.535156 0.136719 79.25 C 0.136719 79.964844 0.714844 80.546875 1.433594 80.546875 Z M 1.433594 80.546875 " fill-opacity="1" fill-rule="nonzero"/><path fill="#6ae7df" d="M 110.886719 90.824219 C 111.390625 90.644531 111.753906 90.179688 111.753906 89.617188 C 111.753906 88.898438 111.171875 88.320312 110.457031 88.320312 C 109.738281 88.320312 109.15625 88.898438 109.15625 89.617188 C 109.15625 90.179688 109.523438 90.644531 110.023438 90.824219 L 110.023438 99.800781 L 105.816406 104 C 105.648438 103.917969 105.464844 103.867188 105.265625 103.867188 C 104.546875 103.867188 103.964844 104.445312 103.964844 105.164062 C 103.964844 105.878906 104.546875 106.457031 105.265625 106.457031 C 105.980469 106.457031 106.5625 105.878906 106.5625 105.164062 C 106.5625 104.964844 106.507812 104.78125 106.429688 104.613281 L 110.886719 100.160156 Z M 110.886719 90.824219 " fill-opacity="1" fill-rule="nonzero"/><g clip-path="url(#13248abaff)"><path fill="#6ae7df" d="M 5.328125 115.527344 C 5.328125 116.242188 5.90625 116.824219 6.625 116.824219 C 7.339844 116.824219 7.921875 116.242188 7.921875 115.527344 C 7.921875 114.964844 7.558594 114.5 7.058594 114.320312 L 7.058594 106.371094 C 7.558594 106.191406 7.921875 105.726562 7.921875 105.164062 C 7.921875 104.445312 7.339844 103.867188 6.625 103.867188 C 5.90625 103.867188 5.328125 104.445312 5.328125 105.164062 C 5.328125 105.726562 5.691406 106.191406 6.191406 106.371094 L 6.191406 114.320312 C 5.691406 114.496094 5.328125 114.964844 5.328125 115.527344 Z M 5.328125 115.527344 " fill-opacity="1" fill-rule="nonzero"/></g><g clip-path="url(#7e9b22e66e)"><path fill="#6ae7df" d="M 151.988281 116.824219 C 152.707031 116.824219 153.285156 116.242188 153.285156 115.527344 C 153.285156 114.8125 152.707031 114.230469 151.988281 114.230469 C 151.425781 114.230469 150.957031 114.59375 150.777344 115.09375 L 122.050781 115.09375 C 121.871094 114.59375 121.402344 114.230469 120.839844 114.230469 C 120.121094 114.230469 119.542969 114.8125 119.542969 115.527344 C 119.542969 116.242188 120.121094 116.824219 120.839844 116.824219 C 121.402344 116.824219 121.871094 116.460938 122.050781 115.957031 L 150.777344 115.957031 C 150.957031 116.460938 151.425781 116.824219 151.988281 116.824219 Z M 151.988281 116.824219 " fill-opacity="1" fill-rule="nonzero"/></g><path fill="#6ae7df" d="M 1.433594 18.359375 C 1.632812 18.359375 1.816406 18.304688 1.984375 18.226562 L 6.191406 22.425781 L 6.191406 36.585938 C 5.691406 36.761719 5.328125 37.230469 5.328125 37.792969 C 5.328125 38.507812 5.90625 39.089844 6.625 39.089844 C 7.339844 39.089844 7.921875 38.507812 7.921875 37.792969 C 7.921875 37.230469 7.558594 36.765625 7.058594 36.585938 L 7.058594 22.066406 L 2.597656 17.617188 C 2.675781 17.445312 2.730469 17.261719 2.730469 17.0625 C 2.730469 16.347656 2.148438 15.769531 1.433594 15.769531 C 0.714844 15.769531 0.136719 16.347656 0.136719 17.0625 C 0.136719 17.78125 0.714844 18.359375 1.433594 18.359375 Z M 1.433594 18.359375 " fill-opacity="1" fill-rule="nonzero"/><path fill="#6ae7df" d="M 32.582031 80.546875 C 33.300781 80.546875 33.878906 79.964844 33.878906 79.25 C 33.878906 78.535156 33.300781 77.957031 32.582031 77.957031 C 32.019531 77.957031 31.550781 78.320312 31.371094 78.820312 L 16.828125 78.820312 L 7.175781 88.453125 C 7.007812 88.375 6.824219 88.320312 6.625 88.320312 C 5.90625 88.320312 5.328125 88.898438 5.328125 89.617188 C 5.328125 90.332031 5.90625 90.910156 6.625 90.910156 C 7.339844 90.910156 7.921875 90.332031 7.921875 89.617188 C 7.921875 89.417969 7.871094 89.234375 7.789062 89.066406 L 17.1875 79.683594 L 31.371094 79.683594 C 31.550781 80.183594 32.019531 80.546875 32.582031 80.546875 Z M 32.582031 80.546875 " fill-opacity="1" fill-rule="nonzero"/><path fill="#6ae7df" d="M 18.21875 43.40625 L 26.179688 43.40625 C 26.359375 43.90625 26.828125 44.269531 27.390625 44.269531 C 28.109375 44.269531 28.6875 43.691406 28.6875 42.976562 C 28.6875 42.261719 28.109375 41.679688 27.390625 41.679688 C 26.828125 41.679688 26.359375 42.042969 26.179688 42.542969 L 18.21875 42.542969 C 18.039062 42.042969 17.570312 41.679688 17.007812 41.679688 C 16.289062 41.679688 15.710938 42.261719 15.710938 42.976562 C 15.710938 43.691406 16.289062 44.269531 17.007812 44.269531 C 17.570312 44.269531 18.039062 43.90625 18.21875 43.40625 Z M 18.21875 43.40625 " fill-opacity="1" fill-rule="nonzero"/><path fill="#6ae7df" d="M 70.222656 53.339844 C 70.222656 52.625 69.640625 52.042969 68.921875 52.042969 C 68.207031 52.042969 67.625 52.625 67.625 53.339844 C 67.625 53.902344 67.988281 54.367188 68.492188 54.546875 L 68.492188 63.882812 L 72.949219 68.335938 C 72.871094 68.503906 72.816406 68.6875 72.816406 68.886719 C 72.816406 69.601562 73.398438 70.183594 74.113281 70.183594 C 74.832031 70.183594 75.414062 69.601562 75.414062 68.886719 C 75.414062 68.171875 74.832031 67.589844 74.113281 67.589844 C 73.914062 67.589844 73.730469 67.644531 73.5625 67.722656 L 69.355469 63.523438 L 69.355469 54.546875 C 69.859375 54.367188 70.222656 53.902344 70.222656 53.339844 Z M 70.222656 53.339844 " fill-opacity="1" fill-rule="nonzero"/><path fill="#6ae7df" d="M 75.324219 73.636719 C 75.144531 73.136719 74.679688 72.773438 74.113281 72.773438 C 73.398438 72.773438 72.816406 73.351562 72.816406 74.070312 C 72.816406 74.785156 73.398438 75.363281 74.113281 75.363281 C 74.679688 75.363281 75.144531 75 75.324219 74.5 L 79.484375 74.5 L 89.136719 64.867188 C 89.308594 64.945312 89.488281 65 89.691406 65 C 90.40625 65 90.988281 64.421875 90.988281 63.703125 C 90.988281 62.988281 90.40625 62.410156 89.691406 62.410156 C 88.972656 62.410156 88.390625 62.988281 88.390625 63.703125 C 88.390625 63.902344 88.445312 64.085938 88.527344 64.253906 L 79.128906 73.636719 Z M 75.324219 73.636719 " fill-opacity="1" fill-rule="nonzero"/><path fill="#6ae7df" d="M 52.050781 89.617188 C 52.050781 90.332031 52.632812 90.910156 53.347656 90.910156 C 53.910156 90.910156 54.378906 90.546875 54.558594 90.046875 L 58.359375 90.046875 L 67.757812 99.429688 C 67.679688 99.597656 67.625 99.78125 67.625 99.980469 C 67.625 100.695312 68.207031 101.277344 68.921875 101.277344 C 69.640625 101.277344 70.222656 100.695312 70.222656 99.980469 C 70.222656 99.265625 69.640625 98.683594 68.921875 98.683594 C 68.722656 98.683594 68.539062 98.738281 68.371094 98.816406 L 58.71875 89.183594 L 54.558594 89.183594 C 54.378906 88.683594 53.910156 88.320312 53.347656 88.320312 C 52.632812 88.320312 52.050781 88.898438 52.050781 89.617188 Z M 52.050781 89.617188 " fill-opacity="1" fill-rule="nonzero"/><path fill="#6ae7df" d="M 18.21875 89.183594 C 18.039062 88.683594 17.570312 88.320312 17.007812 88.320312 C 16.289062 88.320312 15.710938 88.898438 15.710938 89.617188 C 15.710938 90.332031 16.289062 90.910156 17.007812 90.910156 C 17.570312 90.910156 18.039062 90.546875 18.21875 90.046875 L 22.378906 90.046875 L 26.839844 85.59375 C 27.007812 85.675781 27.191406 85.730469 27.390625 85.730469 C 28.109375 85.730469 28.6875 85.148438 28.6875 84.433594 C 28.6875 83.71875 28.109375 83.136719 27.390625 83.136719 C 26.671875 83.136719 26.09375 83.71875 26.09375 84.433594 C 26.09375 84.632812 26.144531 84.816406 26.226562 84.984375 L 22.019531 89.183594 Z M 18.21875 89.183594 " fill-opacity="1" fill-rule="nonzero"/><path fill="#6ae7df" d="M 0.136719 42.976562 C 0.136719 43.691406 0.714844 44.269531 1.433594 44.269531 C 2.148438 44.269531 2.730469 43.691406 2.730469 42.976562 C 2.730469 42.414062 2.367188 41.945312 1.863281 41.765625 L 1.863281 23.453125 C 2.367188 23.277344 2.730469 22.808594 2.730469 22.246094 C 2.730469 21.53125 2.148438 20.949219 1.433594 20.949219 C 0.714844 20.949219 0.136719 21.53125 0.136719 22.246094 C 0.136719 22.808594 0.5 23.273438 1 23.453125 L 1 41.765625 C 0.5 41.945312 0.136719 42.414062 0.136719 42.976562 Z M 0.136719 42.976562 " fill-opacity="1" fill-rule="nonzero"/><path fill="#6ae7df" d="M 67.710938 69.316406 C 67.890625 69.820312 68.359375 70.183594 68.921875 70.183594 C 69.640625 70.183594 70.222656 69.601562 70.222656 68.886719 C 70.222656 68.171875 69.640625 67.589844 68.921875 67.589844 C 68.359375 67.589844 67.890625 67.953125 67.714844 68.453125 L 63.554688 68.453125 L 59.09375 72.90625 C 58.921875 72.828125 58.738281 72.773438 58.539062 72.773438 C 57.824219 72.773438 57.242188 73.351562 57.242188 74.070312 C 57.242188 74.785156 57.824219 75.363281 58.539062 75.363281 C 59.257812 75.363281 59.839844 74.785156 59.839844 74.070312 C 59.839844 73.871094 59.785156 73.6875 59.703125 73.515625 L 63.910156 69.316406 Z M 67.710938 69.316406 " fill-opacity="1" fill-rule="nonzero"/><path fill="#6ae7df" d="M 120.839844 70.183594 C 121.039062 70.183594 121.222656 70.128906 121.390625 70.046875 L 125.851562 74.5 L 135.203125 74.5 C 135.382812 75 135.851562 75.363281 136.414062 75.363281 C 137.132812 75.363281 137.710938 74.785156 137.710938 74.070312 C 137.710938 73.351562 137.132812 72.773438 136.414062 72.773438 C 135.851562 72.773438 135.382812 73.136719 135.203125 73.636719 L 126.210938 73.636719 L 122.003906 69.4375 C 122.085938 69.269531 122.136719 69.085938 122.136719 68.886719 C 122.136719 68.171875 121.554688 67.589844 120.839844 67.589844 C 120.121094 67.589844 119.542969 68.171875 119.542969 68.886719 C 119.542969 69.601562 120.121094 70.183594 120.839844 70.183594 Z M 120.839844 70.183594 " fill-opacity="1" fill-rule="nonzero"/><path fill="#6ae7df" d="M 18.21875 109.914062 C 18.039062 109.410156 17.570312 109.050781 17.007812 109.050781 C 16.289062 109.050781 15.710938 109.628906 15.710938 110.34375 C 15.710938 111.058594 16.289062 111.640625 17.007812 111.640625 C 17.570312 111.640625 18.039062 111.277344 18.21875 110.777344 L 22.378906 110.777344 L 26.839844 106.324219 C 27.007812 106.40625 27.191406 106.457031 27.390625 106.457031 C 28.109375 106.457031 28.6875 105.878906 28.6875 105.164062 C 28.6875 104.445312 28.109375 103.867188 27.390625 103.867188 C 26.671875 103.867188 26.09375 104.445312 26.09375 105.164062 C 26.09375 105.363281 26.144531 105.542969 26.226562 105.714844 L 22.019531 109.914062 Z M 18.21875 109.914062 " fill-opacity="1" fill-rule="nonzero"/><path fill="#6ae7df" d="M 121.390625 98.816406 C 121.222656 98.738281 121.039062 98.683594 120.839844 98.683594 C 120.121094 98.683594 119.542969 99.265625 119.542969 99.980469 C 119.542969 100.695312 120.121094 101.277344 120.839844 101.277344 C 121.554688 101.277344 122.136719 100.695312 122.136719 99.980469 C 122.136719 99.78125 122.085938 99.597656 122.003906 99.429688 L 126.464844 94.976562 L 126.464844 90.824219 C 126.964844 90.644531 127.328125 90.179688 127.328125 89.617188 C 127.328125 88.898438 126.746094 88.320312 126.03125 88.320312 C 125.3125 88.320312 124.734375 88.898438 124.734375 89.617188 C 124.734375 90.179688 125.097656 90.644531 125.597656 90.824219 L 125.597656 94.621094 Z M 121.390625 98.816406 " fill-opacity="1" fill-rule="nonzero"/><path fill="#6ae7df" d="M 57.242188 68.886719 C 57.242188 69.601562 57.824219 70.183594 58.539062 70.183594 C 59.257812 70.183594 59.839844 69.601562 59.839844 68.886719 C 59.839844 68.324219 59.472656 67.855469 58.972656 67.679688 L 58.972656 54.546875 C 59.472656 54.371094 59.839844 53.902344 59.839844 53.339844 C 59.839844 52.625 59.257812 52.042969 58.539062 52.042969 C 57.824219 52.042969 57.242188 52.625 57.242188 53.339844 C 57.242188 53.902344 57.605469 54.367188 58.105469 54.546875 L 58.105469 67.679688 C 57.605469 67.859375 57.242188 68.324219 57.242188 68.886719 Z M 57.242188 68.886719 " fill-opacity="1" fill-rule="nonzero"/><g clip-path="url(#36b2107eda)"><path fill="#6ae7df" d="M 6.625 2.8125 C 6.824219 2.8125 7.007812 2.757812 7.175781 2.679688 L 11.636719 7.132812 L 15.796875 7.132812 C 15.976562 7.632812 16.445312 7.996094 17.007812 7.996094 C 17.722656 7.996094 18.304688 7.414062 18.304688 6.699219 C 18.304688 5.984375 17.722656 5.402344 17.007812 5.402344 C 16.445312 5.402344 15.976562 5.765625 15.796875 6.269531 L 11.996094 6.269531 L 7.789062 2.066406 C 7.867188 1.898438 7.921875 1.714844 7.921875 1.515625 C 7.921875 0.800781 7.339844 0.222656 6.625 0.222656 C 5.90625 0.222656 5.328125 0.800781 5.328125 1.515625 C 5.328125 2.234375 5.90625 2.8125 6.625 2.8125 Z M 6.625 2.8125 " fill-opacity="1" fill-rule="nonzero"/></g><path fill="#6ae7df" d="M 84.5 62.410156 C 83.933594 62.410156 83.46875 62.773438 83.289062 63.273438 L 75.324219 63.273438 C 75.144531 62.773438 74.679688 62.410156 74.113281 62.410156 C 73.398438 62.410156 72.816406 62.988281 72.816406 63.703125 C 72.816406 64.421875 73.398438 65 74.113281 65 C 74.679688 65 75.144531 64.636719 75.324219 64.136719 L 83.289062 64.136719 C 83.46875 64.636719 83.933594 65 84.5 65 C 85.214844 65 85.796875 64.421875 85.796875 63.703125 C 85.796875 62.988281 85.214844 62.410156 84.5 62.410156 Z M 84.5 62.410156 " fill-opacity="1" fill-rule="nonzero"/></svg>