<svg xmlns="http://www.w3.org/2000/svg" xmlns:xlink="http://www.w3.org/1999/xlink" width="160" zoomAndPan="magnify" viewBox="0 0 120 99.749996" height="133" preserveAspectRatio="xMidYMid meet" version="1.0"><defs><clipPath id="2f27125e86"><path d="M 0.148438 0 L 119.847656 0 L 119.847656 99.5 L 0.148438 99.5 Z M 0.148438 0 " clip-rule="nonzero"/></clipPath></defs><g clip-path="url(#2f27125e86)"><path fill="#6ae7df" d="M 33.542969 1.90625 C 33.246094 1.621094 32.800781 1.621094 32.503906 1.90625 C 32.214844 2.203125 32.214844 2.648438 32.503906 2.941406 C 32.753906 3.183594 33.113281 3.222656 33.394531 3.054688 L 41.617188 11.265625 L 41.617188 16.320312 L 49.351562 24.042969 L 68.929688 24.042969 L 73.289062 19.691406 L 118.402344 19.691406 C 118.484375 20.003906 118.769531 20.242188 119.113281 20.242188 C 119.515625 20.242188 119.847656 19.914062 119.847656 19.507812 C 119.847656 19.105469 119.519531 18.773438 119.113281 18.773438 C 118.769531 18.773438 118.484375 19.011719 118.402344 19.324219 L 73.140625 19.324219 L 68.78125 23.679688 L 49.503906 23.679688 L 41.984375 16.167969 L 41.984375 11.113281 L 33.652344 2.792969 C 33.820312 2.515625 33.785156 2.15625 33.542969 1.90625 M 2.34375 10.277344 C 1.9375 10.277344 1.605469 10.605469 1.605469 11.011719 C 1.605469 11.414062 1.9375 11.746094 2.34375 11.746094 C 2.683594 11.746094 2.972656 11.511719 3.054688 11.195312 L 26.066406 11.195312 L 30.574219 15.699219 L 30.574219 25.648438 L 46.402344 41.449219 L 67.691406 41.449219 L 72.230469 45.984375 L 96.117188 45.984375 C 96.199219 46.300781 96.484375 46.535156 96.828125 46.535156 C 97.230469 46.535156 97.5625 46.207031 97.5625 45.800781 C 97.5625 45.398438 97.234375 45.066406 96.828125 45.066406 C 96.484375 45.066406 96.199219 45.304688 96.117188 45.621094 L 72.382812 45.621094 L 67.839844 41.085938 L 46.550781 41.085938 L 30.9375 25.5 L 30.9375 15.546875 L 26.214844 10.832031 L 3.054688 10.832031 C 2.972656 10.511719 2.683594 10.277344 2.34375 10.277344 Z M 41.464844 21.289062 C 41.167969 21.003906 40.722656 21.003906 40.425781 21.289062 C 40.136719 21.585938 40.136719 22.03125 40.425781 22.328125 C 40.675781 22.570312 41.035156 22.605469 41.316406 22.4375 L 49.0625 30.171875 L 71.121094 30.171875 L 75.898438 25.398438 L 91.746094 25.398438 C 91.828125 25.714844 92.117188 25.949219 92.457031 25.949219 C 92.863281 25.949219 93.195312 25.621094 93.195312 25.214844 C 93.195312 24.8125 92.863281 24.484375 92.457031 24.484375 C 92.117188 24.484375 91.828125 24.71875 91.746094 25.035156 L 75.75 25.035156 L 70.96875 29.808594 L 49.21875 29.808594 L 41.578125 22.179688 C 41.746094 21.898438 41.707031 21.542969 41.464844 21.289062 Z M 52.402344 18.21875 C 52 18.21875 51.667969 18.546875 51.667969 18.953125 C 51.667969 19.355469 51.996094 19.6875 52.402344 19.6875 C 52.746094 19.6875 53.035156 19.453125 53.117188 19.136719 L 66.203125 19.136719 L 72.203125 13.148438 L 93.460938 13.148438 L 96.730469 9.882812 L 112.121094 9.882812 C 112.203125 10.195312 112.488281 10.433594 112.832031 10.433594 C 113.234375 10.433594 113.566406 10.105469 113.566406 9.699219 C 113.566406 9.296875 113.238281 8.964844 112.832031 8.964844 C 112.488281 8.964844 112.203125 9.199219 112.121094 9.515625 L 96.582031 9.515625 L 93.308594 12.78125 L 72.050781 12.78125 L 66.050781 18.769531 L 53.117188 18.769531 C 53.035156 18.457031 52.746094 18.21875 52.402344 18.21875 Z M 44.347656 0.878906 C 43.488281 0.03125 42.117188 0.03125 41.257812 0.878906 C 40.40625 1.738281 40.40625 3.105469 41.257812 3.96875 C 41.984375 4.683594 43.070312 4.796875 43.910156 4.304688 L 52.066406 12.445312 L 61.601562 12.445312 L 66.90625 7.144531 L 76.085938 7.144531 C 76.328125 8.085938 77.1875 8.78125 78.199219 8.78125 C 79.402344 8.78125 80.382812 7.804688 80.382812 6.601562 C 80.382812 5.402344 79.402344 4.421875 78.199219 4.421875 C 77.183594 4.421875 76.328125 5.117188 76.085938 6.058594 L 66.457031 6.058594 L 61.148438 11.355469 L 52.519531 11.355469 L 44.683594 3.53125 C 45.175781 2.695312 45.066406 1.605469 44.347656 0.878906 Z M 2.34375 12.375 C 1.140625 12.375 0.15625 13.355469 0.15625 14.554688 C 0.15625 15.757812 1.140625 16.738281 2.34375 16.738281 C 3.355469 16.738281 4.210938 16.039062 4.457031 15.101562 L 21.816406 15.101562 L 24.722656 18 L 24.722656 26.996094 L 44.140625 46.386719 L 44.140625 59.285156 L 53.664062 68.789062 C 53.167969 69.628906 53.28125 70.714844 54 71.441406 C 54.859375 72.289062 56.230469 72.289062 57.089844 71.441406 C 57.941406 70.582031 57.941406 69.214844 57.089844 68.355469 C 56.363281 67.636719 55.277344 67.527344 54.4375 68.019531 L 45.234375 58.832031 L 45.234375 45.933594 L 25.8125 26.542969 L 25.8125 17.542969 L 22.269531 14.007812 L 4.457031 14.007812 C 4.210938 13.074219 3.355469 12.375 2.34375 12.375 Z M 82.460938 55.160156 C 82.863281 55.160156 83.195312 54.832031 83.195312 54.425781 C 83.195312 54.023438 82.867188 53.691406 82.460938 53.691406 C 82.117188 53.691406 81.832031 53.925781 81.746094 54.242188 L 72.210938 54.242188 L 66.367188 48.410156 L 49.171875 48.410156 L 49.171875 56.191406 L 55.945312 62.953125 L 64.050781 62.953125 C 64.132812 63.269531 64.421875 63.503906 64.761719 63.503906 C 65.164062 63.503906 65.496094 63.175781 65.496094 62.773438 C 65.496094 62.367188 65.167969 62.039062 64.761719 62.039062 C 64.421875 62.039062 64.132812 62.273438 64.050781 62.589844 L 56.097656 62.589844 L 49.539062 56.042969 L 49.539062 48.773438 L 66.214844 48.773438 L 72.058594 54.605469 L 81.746094 54.605469 C 81.832031 54.921875 82.117188 55.160156 82.460938 55.160156 Z M 2.34375 18.621094 C 1.9375 18.621094 1.605469 18.949219 1.605469 19.355469 C 1.605469 19.757812 1.9375 20.089844 2.34375 20.089844 C 2.683594 20.089844 2.972656 19.855469 3.054688 19.539062 L 17.925781 19.539062 L 19.730469 21.339844 L 19.730469 28.222656 L 11.730469 36.214844 L 11.730469 59.246094 L 21.277344 68.777344 L 21.277344 79.511719 C 20.960938 79.59375 20.722656 79.882812 20.722656 80.222656 C 20.722656 80.625 21.050781 80.957031 21.457031 80.957031 C 21.863281 80.957031 22.195312 80.628906 22.195312 80.222656 C 22.195312 79.882812 21.957031 79.59375 21.640625 79.511719 L 21.640625 68.625 L 12.09375 59.09375 L 12.09375 36.363281 L 20.097656 28.375 L 20.097656 21.1875 L 18.078125 19.171875 L 3.054688 19.171875 C 2.972656 18.859375 2.683594 18.621094 2.34375 18.621094 Z M 14.628906 27.550781 C 15.480469 26.691406 15.480469 25.324219 14.628906 24.464844 C 13.769531 23.617188 12.398438 23.617188 11.539062 24.464844 C 10.820312 25.191406 10.710938 26.277344 11.203125 27.113281 L 7.128906 31.183594 L 7.128906 62.996094 L 13.359375 69.214844 L 13.359375 85.582031 C 12.417969 85.828125 11.71875 86.683594 11.71875 87.695312 C 11.71875 88.894531 12.699219 89.875 13.902344 89.875 C 15.105469 89.875 16.085938 88.894531 16.085938 87.695312 C 16.085938 86.683594 15.390625 85.828125 14.449219 85.582031 L 14.449219 68.761719 L 8.222656 62.546875 L 8.222656 31.636719 L 11.972656 27.890625 C 12.816406 28.382812 13.90625 28.269531 14.628906 27.550781 Z M 8.359375 68.933594 C 8.359375 68.527344 8.027344 68.199219 7.621094 68.199219 C 7.21875 68.199219 6.886719 68.527344 6.886719 68.933594 C 6.886719 69.273438 7.125 69.558594 7.441406 69.644531 L 7.441406 82 L 4.84375 84.59375 L 4.84375 98 C 4.527344 98.085938 4.292969 98.371094 4.292969 98.710938 C 4.292969 99.117188 4.621094 99.445312 5.027344 99.445312 C 5.429688 99.445312 5.761719 99.117188 5.761719 98.710938 C 5.761719 98.371094 5.527344 98.085938 5.210938 98 L 5.210938 84.742188 L 7.804688 82.152344 L 7.804688 69.644531 C 8.125 69.558594 8.359375 69.273438 8.359375 68.933594 Z M 23.660156 35.144531 C 23.363281 34.855469 22.914062 34.855469 22.621094 35.144531 C 22.332031 35.4375 22.332031 35.886719 22.621094 36.179688 C 22.871094 36.421875 23.230469 36.460938 23.511719 36.289062 L 36.175781 48.933594 L 36.175781 61.476562 L 51.359375 76.636719 L 79.238281 76.636719 C 79.320312 76.953125 79.605469 77.1875 79.949219 77.1875 C 80.351562 77.1875 80.683594 76.859375 80.683594 76.453125 C 80.683594 76.050781 80.355469 75.722656 79.949219 75.722656 C 79.605469 75.722656 79.320312 75.957031 79.238281 76.273438 L 51.507812 76.273438 L 36.539062 61.328125 L 36.539062 48.78125 L 23.769531 36.03125 C 23.9375 35.75 23.898438 35.394531 23.660156 35.144531 Z M 24.605469 31.988281 C 24.890625 31.691406 24.890625 31.246094 24.605469 30.949219 C 24.308594 30.664062 23.859375 30.664062 23.566406 30.949219 C 23.324219 31.199219 23.285156 31.558594 23.457031 31.839844 L 16.523438 38.761719 L 16.523438 56.1875 L 26.734375 66.382812 L 26.734375 89.875 C 26.417969 89.957031 26.183594 90.242188 26.183594 90.585938 C 26.183594 90.988281 26.511719 91.316406 26.917969 91.316406 C 27.320312 91.316406 27.652344 90.988281 27.652344 90.585938 C 27.652344 90.242188 27.414062 89.957031 27.097656 89.875 L 27.097656 66.234375 L 16.890625 56.039062 L 16.890625 38.914062 L 23.714844 32.097656 C 23.996094 32.265625 24.355469 32.230469 24.605469 31.988281 Z M 28.128906 44.878906 C 28.121094 43.269531 26.828125 41.980469 25.214844 41.972656 C 23.597656 41.980469 22.308594 43.269531 22.300781 44.878906 C 22.304688 46.242188 23.226562 47.371094 24.484375 47.695312 L 24.484375 57.398438 L 31.148438 64.050781 L 31.148438 73.152344 C 29.890625 73.476562 28.96875 74.605469 28.960938 75.96875 C 28.96875 77.578125 30.261719 78.867188 31.875 78.875 C 33.488281 78.867188 34.78125 77.578125 34.789062 75.96875 C 34.78125 74.605469 33.863281 73.476562 32.605469 73.152344 L 32.605469 63.449219 L 25.941406 56.796875 L 25.941406 47.695312 C 27.199219 47.371094 28.121094 46.242188 28.128906 44.878906 Z M 2.34375 5.804688 C 1.9375 5.804688 1.605469 6.136719 1.605469 6.539062 C 1.605469 6.941406 1.9375 7.273438 2.34375 7.273438 C 2.683594 7.273438 2.972656 7.039062 3.054688 6.722656 L 28.960938 6.722656 L 36.011719 13.761719 L 36.011719 24.289062 L 48.105469 36.363281 L 76.289062 36.363281 C 76.371094 36.679688 76.65625 36.917969 77 36.917969 C 77.402344 36.917969 77.734375 36.589844 77.734375 36.183594 C 77.734375 35.78125 77.40625 35.449219 77 35.449219 C 76.65625 35.449219 76.371094 35.683594 76.289062 36 L 48.257812 36 L 36.375 24.136719 L 36.375 13.609375 L 29.113281 6.359375 L 3.054688 6.359375 C 2.972656 6.039062 2.683594 5.804688 2.34375 5.804688 Z M 2.34375 5.804688 " fill-opacity="1" fill-rule="nonzero"/></g></svg>