<svg xmlns="http://www.w3.org/2000/svg" xmlns:xlink="http://www.w3.org/1999/xlink" width="346" zoomAndPan="magnify" viewBox="0 0 259.5 98.999996" height="132" preserveAspectRatio="xMidYMid meet" version="1.0"><defs><clipPath id="c3d371b824"><path d="M 0.257812 48 L 256.757812 48 L 256.757812 98.902344 L 0.257812 98.902344 Z M 0.257812 48 " clip-rule="nonzero"/></clipPath><clipPath id="c8d205f3db"><path d="M 0.257812 44 L 75 44 L 75 47 L 0.257812 47 Z M 0.257812 44 " clip-rule="nonzero"/></clipPath><clipPath id="07ad91774f"><path d="M 73 0.773438 L 172 0.773438 L 172 53 L 73 53 Z M 73 0.773438 " clip-rule="nonzero"/></clipPath><clipPath id="3fc59c8266"><path d="M 0.257812 57 L 96 57 L 96 91 L 0.257812 91 Z M 0.257812 57 " clip-rule="nonzero"/></clipPath></defs><g clip-path="url(#c3d371b824)"><path fill="#6ae7df" d="M 110.179688 74.71875 L 140.027344 74.71875 L 158.375 93.15625 L 193.953125 93.15625 C 194.453125 96.484375 197.308594 99.035156 200.757812 99.035156 C 204.5625 99.035156 207.644531 95.9375 207.644531 92.117188 C 207.644531 88.296875 204.5625 85.199219 200.757812 85.199219 C 197.355469 85.199219 194.53125 87.679688 193.976562 90.941406 L 159.289062 90.941406 L 143.140625 74.71875 L 227.5625 74.71875 C 228.0625 78.046875 230.921875 80.597656 234.371094 80.597656 C 238.175781 80.597656 241.257812 77.5 241.257812 73.679688 C 241.257812 69.859375 238.175781 66.761719 234.371094 66.761719 C 230.96875 66.761719 228.140625 69.246094 227.585938 72.507812 L 192.1875 72.507812 L 208.332031 56.285156 L 243.023438 56.285156 C 243.578125 59.546875 246.402344 62.03125 249.808594 62.03125 C 253.609375 62.03125 256.691406 58.933594 256.691406 55.113281 C 256.691406 51.292969 253.609375 48.195312 249.808594 48.195312 C 246.355469 48.195312 243.5 50.742188 243 54.070312 L 207.421875 54.070312 L 189.074219 72.507812 L 111.09375 72.507812 L 92.746094 54.070312 L 0.285156 54.070312 L 0.285156 56.285156 L 91.832031 56.285156 L 110.179688 74.71875 " fill-opacity="1" fill-rule="nonzero"/></g><g clip-path="url(#c8d205f3db)"><path fill="#6ae7df" d="M 74.015625 44.347656 L 0.285156 44.347656 L 0.285156 46.5625 L 73.375 46.5625 L 74.015625 44.347656 " fill-opacity="1" fill-rule="nonzero"/></g><g clip-path="url(#07ad91774f)"><path fill="#6ae7df" d="M 75.332031 52.6875 L 82.65625 27.328125 L 116.898438 27.328125 C 117.460938 30.578125 120.28125 33.046875 123.679688 33.046875 C 127.480469 33.046875 130.5625 29.949219 130.5625 26.128906 C 130.5625 22.308594 127.480469 19.210938 123.679688 19.210938 C 120.21875 19.210938 117.355469 21.777344 116.867188 25.113281 L 107.238281 25.113281 L 123.382812 8.890625 L 158.070312 8.890625 C 158.625 12.15625 161.453125 14.636719 164.855469 14.636719 C 168.660156 14.636719 171.742188 11.539062 171.742188 7.71875 C 171.742188 3.898438 168.660156 0.800781 164.855469 0.800781 C 161.40625 0.800781 158.546875 3.351562 158.046875 6.679688 L 122.472656 6.679688 L 104.121094 25.113281 L 81.003906 25.113281 L 73.039062 52.6875 L 75.332031 52.6875 " fill-opacity="1" fill-rule="nonzero"/></g><path fill="#6ae7df" d="M 134.339844 44.347656 L 79.175781 44.347656 L 78.535156 46.5625 L 116.359375 46.5625 L 134.707031 64.996094 L 170.285156 64.996094 C 170.785156 68.324219 173.640625 70.875 177.09375 70.875 C 180.894531 70.875 183.980469 67.777344 183.980469 63.957031 C 183.980469 60.136719 180.894531 57.039062 177.09375 57.039062 C 173.6875 57.039062 170.863281 59.523438 170.308594 62.78125 L 135.621094 62.78125 L 119.476562 46.5625 L 190.242188 46.5625 C 190.765625 49.855469 193.609375 52.371094 197.035156 52.371094 C 200.839844 52.371094 203.921875 49.273438 203.921875 45.453125 C 203.921875 41.632812 200.839844 38.535156 197.035156 38.535156 C 193.609375 38.535156 190.765625 41.054688 190.242188 44.347656 L 166.125 44.347656 L 182.269531 28.125 L 216.957031 28.125 C 217.511719 31.386719 220.335938 33.871094 223.742188 33.871094 C 227.542969 33.871094 230.628906 30.773438 230.628906 26.953125 C 230.628906 23.132812 227.542969 20.035156 223.742188 20.035156 C 220.289062 20.035156 217.433594 22.585938 216.933594 25.910156 L 181.355469 25.910156 L 163.007812 44.347656 L 134.339844 44.347656 " fill-opacity="1" fill-rule="nonzero"/><g clip-path="url(#3fc59c8266)"><path fill="#6ae7df" d="M 28.082031 65.792969 L 46.429688 84.230469 L 82.007812 84.230469 C 82.507812 87.554688 85.363281 90.105469 88.816406 90.105469 C 92.617188 90.105469 95.703125 87.011719 95.703125 83.1875 C 95.703125 79.367188 92.617188 76.269531 88.816406 76.269531 C 85.410156 76.269531 82.585938 78.753906 82.03125 82.015625 L 47.34375 82.015625 L 31.195312 65.792969 L 71.546875 65.792969 L 73.894531 57.667969 L 71.597656 57.667969 L 69.890625 63.578125 L 0.285156 63.578125 L 0.285156 65.792969 L 28.082031 65.792969 " fill-opacity="1" fill-rule="nonzero"/></g></svg>