<svg xmlns="http://www.w3.org/2000/svg" xmlns:xlink="http://www.w3.org/1999/xlink" width="40" zoomAndPan="magnify" viewBox="0 0 30 30.000001" height="40" preserveAspectRatio="xMidYMid meet" version="1.0"><defs><clipPath id="4e29d9cd3c"><path d="M 0.484375 0 L 29.515625 0 L 29.515625 29.03125 L 0.484375 29.03125 Z M 0.484375 0 " clip-rule="nonzero"/></clipPath><clipPath id="fcce423769"><path d="M 10.417969 9.761719 L 19.507812 9.761719 L 19.507812 20.316406 L 10.417969 20.316406 Z M 10.417969 9.761719 " clip-rule="nonzero"/></clipPath><clipPath id="42f3dddc8a"><path d="M 14 15 L 16 15 L 16 20.324219 L 14 20.324219 Z M 14 15 " clip-rule="nonzero"/></clipPath><clipPath id="f3d4a4d9a0"><path d="M 13 8.710938 L 17 8.710938 L 17 11 L 13 11 Z M 13 8.710938 " clip-rule="nonzero"/></clipPath><clipPath id="5d6db7b31d"><path d="M 9.519531 15 L 12 15 L 12 20 L 9.519531 20 Z M 9.519531 15 " clip-rule="nonzero"/></clipPath><clipPath id="b1f5871ef3"><path d="M 18.289062 15.984375 L 20.40625 15.984375 L 20.40625 19.316406 L 18.289062 19.316406 Z M 18.289062 15.984375 " clip-rule="nonzero"/></clipPath></defs><g clip-path="url(#4e29d9cd3c)"><path fill="#ffffff" d="M 0.484375 0 L 29.515625 0 L 29.515625 36.289062 L 0.484375 36.289062 Z M 0.484375 0 " fill-opacity="1" fill-rule="nonzero"/><path fill="#ffffff" d="M 0.484375 0 L 29.515625 0 L 29.515625 29.03125 L 0.484375 29.03125 Z M 0.484375 0 " fill-opacity="1" fill-rule="nonzero"/><path fill="#ffffff" d="M 0.484375 0 L 29.515625 0 L 29.515625 29.03125 L 0.484375 29.03125 Z M 0.484375 0 " fill-opacity="1" fill-rule="nonzero"/></g><g clip-path="url(#fcce423769)"><path fill="#6ae7df" d="M 10.832031 17.441406 L 14.964844 19.84375 L 19.097656 17.441406 L 19.097656 12.640625 L 14.964844 10.238281 L 10.832031 12.640625 Z M 14.964844 20.316406 L 10.421875 17.679688 L 10.421875 12.402344 L 14.964844 9.765625 L 19.503906 12.402344 L 19.503906 17.679688 L 14.964844 20.316406 " fill-opacity="1" fill-rule="nonzero"/></g><path fill="#6ae7df" d="M 13.726562 15.761719 L 14.964844 16.480469 L 16.203125 15.761719 L 16.203125 14.320312 L 14.964844 13.601562 L 13.726562 14.320312 Z M 14.964844 16.953125 L 13.320312 15.996094 L 13.320312 14.085938 L 14.964844 13.128906 L 16.609375 14.085938 L 16.609375 15.996094 L 14.964844 16.953125 " fill-opacity="1" fill-rule="nonzero"/><path fill="#6ae7df" d="M 14.863281 15.21875 L 10.523438 12.699219 L 10.726562 12.34375 L 15.066406 14.863281 L 14.863281 15.21875 " fill-opacity="1" fill-rule="nonzero"/><g clip-path="url(#42f3dddc8a)"><path fill="#6ae7df" d="M 15.167969 20.078125 L 14.761719 20.078125 L 14.761719 15.039062 L 15.167969 15.039062 L 15.167969 20.078125 " fill-opacity="1" fill-rule="nonzero"/></g><path fill="#6ae7df" d="M 15.066406 15.21875 L 14.863281 14.863281 L 19.199219 12.34375 L 19.402344 12.699219 L 15.066406 15.21875 " fill-opacity="1" fill-rule="nonzero"/><path fill="#6ae7df" d="M 11.710938 18.070312 L 11.304688 18.070312 L 11.304688 13.03125 L 11.710938 13.03125 L 11.710938 18.070312 " fill-opacity="1" fill-rule="nonzero"/><path fill="#6ae7df" d="M 15.066406 19.234375 L 14.863281 18.878906 L 19.199219 16.359375 L 19.402344 16.714844 L 15.066406 19.234375 " fill-opacity="1" fill-rule="nonzero"/><path fill="#6ae7df" d="M 18.316406 13.210938 L 13.980469 10.691406 L 14.183594 10.335938 L 18.519531 12.855469 L 18.316406 13.210938 " fill-opacity="1" fill-rule="nonzero"/><path fill="#6ae7df" d="M 12.660156 18.625 L 12.253906 18.625 L 12.253906 13.585938 L 12.660156 13.585938 L 12.660156 18.625 " fill-opacity="1" fill-rule="nonzero"/><path fill="#6ae7df" d="M 15.066406 18.132812 L 14.863281 17.777344 L 19.199219 15.257812 L 19.402344 15.613281 L 15.066406 18.132812 " fill-opacity="1" fill-rule="nonzero"/><path fill="#6ae7df" d="M 17.367188 13.761719 L 13.03125 11.242188 L 13.234375 10.886719 L 17.574219 13.40625 L 17.367188 13.761719 " fill-opacity="1" fill-rule="nonzero"/><path fill="#6ae7df" d="M 17.367188 13.761719 L 13.03125 11.242188 L 13.234375 10.886719 L 17.574219 13.40625 L 17.367188 13.761719 " fill-opacity="1" fill-rule="nonzero"/><path fill="#6ae7df" d="M 16.304688 14.378906 L 11.976562 11.855469 L 12.179688 11.5 L 16.507812 14.027344 L 16.304688 14.378906 " fill-opacity="1" fill-rule="nonzero"/><path fill="#6ae7df" d="M 13.714844 19.238281 L 13.308594 19.238281 L 13.320312 14.203125 L 13.726562 14.203125 L 13.714844 19.238281 " fill-opacity="1" fill-rule="nonzero"/><path fill="#6ae7df" d="M 15.066406 16.894531 L 14.863281 16.539062 L 19.199219 14.03125 L 19.402344 14.382812 L 15.066406 16.894531 " fill-opacity="1" fill-rule="nonzero"/><g clip-path="url(#f3d4a4d9a0)"><path fill="#6ae7df" d="M 16.667969 10.179688 L 14.964844 9.1875 L 13.257812 10.179688 L 13.054688 9.824219 L 14.964844 8.714844 L 16.871094 9.824219 L 16.667969 10.179688 " fill-opacity="1" fill-rule="nonzero"/></g><g clip-path="url(#5d6db7b31d)"><path fill="#6ae7df" d="M 11.429688 19.3125 L 9.519531 18.203125 L 9.519531 15.984375 L 9.925781 15.984375 L 9.925781 17.96875 L 11.632812 18.957031 L 11.429688 19.3125 " fill-opacity="1" fill-rule="nonzero"/></g><g clip-path="url(#b1f5871ef3)"><path fill="#6ae7df" d="M 18.5 19.3125 L 18.296875 18.957031 L 20 17.96875 L 20 15.984375 L 20.40625 15.984375 L 20.40625 18.203125 L 18.5 19.3125 " fill-opacity="1" fill-rule="nonzero"/></g></svg>