<svg xmlns="http://www.w3.org/2000/svg" xmlns:xlink="http://www.w3.org/1999/xlink" width="500" zoomAndPan="magnify" viewBox="0 0 375 374.999991" height="500" preserveAspectRatio="xMidYMid meet" version="1.0"><defs><clipPath id="43697609e5"><path d="M 128.410156 126.089844 L 246.761719 126.089844 L 246.761719 262.449219 L 128.410156 262.449219 Z M 128.410156 126.089844 " clip-rule="nonzero"/></clipPath><clipPath id="d6a5b258e6"><path d="M 162 112.5 L 213 112.5 L 213 132 L 162 132 Z M 162 112.5 " clip-rule="nonzero"/></clipPath><clipPath id="daf795d938"><path d="M 116.71875 206 L 145 206 L 145 250 L 116.71875 250 Z M 116.71875 206 " clip-rule="nonzero"/></clipPath><clipPath id="bfc3adbcf6"><path d="M 230.910156 206.460938 L 258.464844 206.460938 L 258.464844 249.511719 L 230.910156 249.511719 Z M 230.910156 206.460938 " clip-rule="nonzero"/></clipPath></defs><g clip-path="url(#43697609e5)"><path fill="#6ae7df" d="M 133.773438 225.3125 L 187.59375 256.34375 L 241.410156 225.3125 L 241.410156 163.25 L 187.59375 132.21875 L 133.773438 163.25 Z M 187.59375 262.449219 L 128.480469 228.363281 L 128.480469 160.199219 L 187.59375 126.113281 L 246.703125 160.199219 L 246.703125 228.363281 L 187.59375 262.449219 " fill-opacity="1" fill-rule="nonzero"/></g><path fill="#6ae7df" d="M 171.46875 203.582031 L 187.59375 212.878906 L 203.722656 203.582031 L 203.722656 184.980469 L 187.59375 175.683594 L 171.46875 184.980469 Z M 187.59375 218.984375 L 166.171875 206.628906 L 166.171875 181.933594 L 187.59375 169.578125 L 209.015625 181.933594 L 209.015625 206.628906 L 187.59375 218.984375 " fill-opacity="1" fill-rule="nonzero"/><path fill="#6ae7df" d="M 186.269531 196.570312 L 129.804688 164.015625 L 132.453125 159.4375 L 188.914062 191.992188 L 186.269531 196.570312 " fill-opacity="1" fill-rule="nonzero"/><path fill="#6ae7df" d="M 190.238281 259.394531 L 184.945312 259.394531 L 184.945312 194.28125 L 190.238281 194.28125 L 190.238281 259.394531 " fill-opacity="1" fill-rule="nonzero"/><path fill="#6ae7df" d="M 188.914062 196.570312 L 186.269531 191.992188 L 242.734375 159.4375 L 245.378906 164.015625 L 188.914062 196.570312 " fill-opacity="1" fill-rule="nonzero"/><path fill="#6ae7df" d="M 145.242188 233.453125 L 139.949219 233.453125 L 139.949219 168.335938 L 145.242188 168.335938 L 145.242188 233.453125 " fill-opacity="1" fill-rule="nonzero"/><path fill="#6ae7df" d="M 188.914062 248.457031 L 186.269531 243.878906 L 242.734375 211.324219 L 245.378906 215.902344 L 188.914062 248.457031 " fill-opacity="1" fill-rule="nonzero"/><path fill="#6ae7df" d="M 231.265625 170.625 L 174.800781 138.070312 L 177.445312 133.492188 L 233.910156 166.050781 L 231.265625 170.625 " fill-opacity="1" fill-rule="nonzero"/><path fill="#6ae7df" d="M 157.59375 240.574219 L 152.300781 240.574219 L 152.300781 175.457031 L 157.59375 175.457031 L 157.59375 240.574219 " fill-opacity="1" fill-rule="nonzero"/><path fill="#6ae7df" d="M 188.914062 234.214844 L 186.269531 229.636719 L 242.734375 197.078125 L 245.378906 201.65625 L 188.914062 234.214844 " fill-opacity="1" fill-rule="nonzero"/><path fill="#6ae7df" d="M 218.910156 177.746094 L 162.449219 145.191406 L 165.09375 140.613281 L 221.558594 173.171875 L 218.910156 177.746094 " fill-opacity="1" fill-rule="nonzero"/><path fill="#6ae7df" d="M 218.910156 177.746094 L 162.449219 145.191406 L 165.09375 140.613281 L 221.558594 173.171875 L 218.910156 177.746094 " fill-opacity="1" fill-rule="nonzero"/><path fill="#6ae7df" d="M 205.042969 185.742188 L 148.683594 153.121094 L 151.335938 148.550781 L 207.695312 181.171875 L 205.042969 185.742188 " fill-opacity="1" fill-rule="nonzero"/><path fill="#6ae7df" d="M 171.355469 248.507812 L 166.0625 248.503906 L 166.171875 183.453125 L 171.46875 183.460938 L 171.355469 248.507812 " fill-opacity="1" fill-rule="nonzero"/><path fill="#6ae7df" d="M 188.914062 218.222656 L 186.273438 213.636719 L 242.738281 181.210938 L 245.378906 185.792969 L 188.914062 218.222656 " fill-opacity="1" fill-rule="nonzero"/><g clip-path="url(#d6a5b258e6)"><path fill="#6ae7df" d="M 209.796875 131.457031 L 187.59375 118.65625 L 165.386719 131.457031 L 162.742188 126.882812 L 187.59375 112.550781 L 212.445312 126.882812 L 209.796875 131.457031 " fill-opacity="1" fill-rule="nonzero"/></g><g clip-path="url(#daf795d938)"><path fill="#6ae7df" d="M 141.570312 249.476562 L 116.71875 235.144531 L 116.71875 206.488281 L 122.011719 206.488281 L 122.011719 232.097656 L 144.21875 244.898438 L 141.570312 249.476562 " fill-opacity="1" fill-rule="nonzero"/></g><g clip-path="url(#bfc3adbcf6)"><path fill="#6ae7df" d="M 233.613281 249.476562 L 230.96875 244.898438 L 253.171875 232.097656 L 253.171875 206.488281 L 258.464844 206.488281 L 258.464844 235.144531 L 233.613281 249.476562 " fill-opacity="1" fill-rule="nonzero"/></g></svg>