<svg xmlns="http://www.w3.org/2000/svg" version="1.1" xmlns:xlink="http://www.w3.org/1999/xlink" xmlns:svgjs="http://svgjs.com/svgjs" width="1000" height="1000"><rect width="1000" height="1000" rx="200" ry="200" fill="#311f5a"></rect><g transform="matrix(1.6,0,0,1.6,99.98593063354491,99.89843111038203)"><svg xmlns="http://www.w3.org/2000/svg" version="1.1" xmlns:xlink="http://www.w3.org/1999/xlink" xmlns:svgjs="http://svgjs.com/svgjs" width="500" height="500"><svg xmlns="http://www.w3.org/2000/svg" xmlns:xlink="http://www.w3.org/1999/xlink" width="500" zoomAndPan="magnify" viewBox="0 0 375 374.999991" height="500" preserveAspectRatio="xMidYMid meet" version="1.0"><defs><clipPath id="598cc445cf"><path d="M 42 36.246094 L 333 36.246094 L 333 372.382812 L 42 372.382812 Z M 42 36.246094 " clip-rule="nonzero"></path></clipPath><clipPath id="6bed0a7c92"><path d="M 126 2.753906 L 249 2.753906 L 249 50 L 126 50 Z M 126 2.753906 " clip-rule="nonzero"></path></clipPath><clipPath id="2ea0764bb0"><path d="M 13.144531 234 L 81 234 L 81 341 L 13.144531 341 Z M 13.144531 234 " clip-rule="nonzero"></path></clipPath><clipPath id="79e1782930"><path d="M 294.09375 234.371094 L 361.890625 234.371094 L 361.890625 340.496094 L 294.09375 340.496094 Z M 294.09375 234.371094 " clip-rule="nonzero"></path></clipPath></defs><g clip-path="url(#598cc445cf)"><path fill="#6ae7df" d="M 55.109375 280.839844 L 187.519531 357.332031 L 319.925781 280.839844 L 319.925781 127.855469 L 187.519531 51.359375 L 55.109375 127.855469 Z M 187.519531 372.382812 L 42.085938 288.355469 L 42.085938 120.335938 L 187.519531 36.308594 L 332.949219 120.335938 L 332.949219 288.355469 L 187.519531 372.382812 " fill-opacity="1" fill-rule="nonzero"></path></g><path fill="#6ae7df" d="M 147.84375 227.269531 L 187.519531 250.1875 L 227.199219 227.269531 L 227.199219 181.421875 L 187.519531 158.507812 L 147.84375 181.421875 Z M 187.519531 265.234375 L 134.820312 234.785156 L 134.820312 173.90625 L 187.519531 143.453125 L 240.222656 173.90625 L 240.222656 234.785156 L 187.519531 265.234375 " fill-opacity="1" fill-rule="nonzero"></path><path fill="#6ae7df" d="M 184.261719 209.988281 L 45.339844 129.734375 L 51.851562 118.453125 L 190.773438 198.703125 L 184.261719 209.988281 " fill-opacity="1" fill-rule="nonzero"></path><path fill="#6ae7df" d="M 194.03125 364.855469 L 181.007812 364.855469 L 181.007812 204.347656 L 194.03125 204.347656 L 194.03125 364.855469 " fill-opacity="1" fill-rule="nonzero"></path><path fill="#6ae7df" d="M 190.773438 209.988281 L 184.261719 198.703125 L 323.183594 118.453125 L 329.695312 129.734375 L 190.773438 209.988281 " fill-opacity="1" fill-rule="nonzero"></path><path fill="#6ae7df" d="M 83.328125 300.902344 L 70.304688 300.902344 L 70.304688 140.390625 L 83.328125 140.390625 L 83.328125 300.902344 " fill-opacity="1" fill-rule="nonzero"></path><path fill="#6ae7df" d="M 190.773438 337.894531 L 184.261719 326.609375 L 323.183594 246.359375 L 329.695312 257.644531 L 190.773438 337.894531 " fill-opacity="1" fill-rule="nonzero"></path><path fill="#6ae7df" d="M 294.964844 146.035156 L 156.042969 65.785156 L 162.554688 54.5 L 301.476562 134.75 L 294.964844 146.035156 " fill-opacity="1" fill-rule="nonzero"></path><path fill="#6ae7df" d="M 113.714844 318.457031 L 100.691406 318.457031 L 100.691406 157.945312 L 113.714844 157.945312 L 113.714844 318.457031 " fill-opacity="1" fill-rule="nonzero"></path><path fill="#6ae7df" d="M 190.773438 302.777344 L 184.261719 291.496094 L 323.183594 211.242188 L 329.695312 222.527344 L 190.773438 302.777344 " fill-opacity="1" fill-rule="nonzero"></path><path fill="#6ae7df" d="M 264.574219 163.589844 L 125.65625 83.339844 L 132.167969 72.054688 L 271.085938 152.304688 L 264.574219 163.589844 " fill-opacity="1" fill-rule="nonzero"></path><path fill="#6ae7df" d="M 264.574219 163.589844 L 125.65625 83.339844 L 132.167969 72.054688 L 271.085938 152.304688 L 264.574219 163.589844 " fill-opacity="1" fill-rule="nonzero"></path><path fill="#6ae7df" d="M 230.449219 183.296875 L 91.789062 102.882812 L 98.320312 91.617188 L 236.976562 172.03125 L 230.449219 183.296875 " fill-opacity="1" fill-rule="nonzero"></path><path fill="#6ae7df" d="M 147.574219 338.019531 L 134.550781 338.003906 L 134.820312 177.652344 L 147.84375 177.671875 L 147.574219 338.019531 " fill-opacity="1" fill-rule="nonzero"></path><path fill="#6ae7df" d="M 190.765625 263.359375 L 184.273438 252.058594 L 323.191406 172.121094 L 329.6875 183.425781 L 190.765625 263.359375 " fill-opacity="1" fill-rule="nonzero"></path><g clip-path="url(#6bed0a7c92)"><path fill="#6ae7df" d="M 242.148438 49.484375 L 187.519531 17.921875 L 132.886719 49.484375 L 126.375 38.199219 L 187.519531 2.871094 L 248.660156 38.199219 L 242.148438 49.484375 " fill-opacity="1" fill-rule="nonzero"></path></g><g clip-path="url(#2ea0764bb0)"><path fill="#6ae7df" d="M 74.289062 340.40625 L 13.144531 305.078125 L 13.144531 234.4375 L 26.171875 234.4375 L 26.171875 297.5625 L 80.800781 329.121094 L 74.289062 340.40625 " fill-opacity="1" fill-rule="nonzero"></path></g><g clip-path="url(#79e1782930)"><path fill="#6ae7df" d="M 300.746094 340.40625 L 294.234375 329.121094 L 348.867188 297.5625 L 348.867188 234.441406 L 361.890625 234.441406 L 361.890625 305.078125 L 300.746094 340.40625 " fill-opacity="1" fill-rule="nonzero"></path></g></svg></svg></g></svg>